<svg width="150" height="50" viewBox="0 0 150 50" fill="none" xmlns="http://www.w3.org/2000/svg">
<path d="M17.964 35.536H8.532L7.02 40H0.576L9.72 14.728H16.848L25.992 40H19.476L17.964 35.536ZM16.38 30.784L13.248 21.532L10.152 30.784H16.38ZM54.407 19.696C56.903 19.696 58.883 20.452 60.347 21.964C61.835 23.476 62.579 25.576 62.579 28.264V40H56.459V29.092C56.459 27.796 56.111 26.8 55.415 26.104C54.743 25.384 53.807 25.024 52.607 25.024C51.407 25.024 50.459 25.384 49.763 26.104C49.091 26.8 48.755 27.796 48.755 29.092V40H42.635V29.092C42.635 27.796 42.287 26.8 41.591 26.104C40.919 25.384 39.983 25.024 38.783 25.024C37.583 25.024 36.635 25.384 35.939 26.104C35.267 26.8 34.931 27.796 34.931 29.092V40H28.775V19.912H34.931V22.432C35.555 21.592 36.371 20.932 37.379 20.452C38.387 19.948 39.527 19.696 40.799 19.696C42.311 19.696 43.655 20.02 44.831 20.668C46.031 21.316 46.967 22.24 47.639 23.44C48.335 22.336 49.283 21.436 50.483 20.74C51.683 20.044 52.991 19.696 54.407 19.696ZM65.6603 29.92C65.6603 27.856 66.0443 26.044 66.8123 24.484C67.6043 22.924 68.6723 21.724 70.0163 20.884C71.3603 20.044 72.8603 19.624 74.5163 19.624C75.9323 19.624 77.1683 19.912 78.2243 20.488C79.3043 21.064 80.1323 21.82 80.7083 22.756V19.912H86.8643V40H80.7083V37.156C80.1083 38.092 79.2683 38.848 78.1883 39.424C77.1323 40 75.8963 40.288 74.4803 40.288C72.8483 40.288 71.3603 39.868 70.0163 39.028C68.6723 38.164 67.6043 36.952 66.8123 35.392C66.0443 33.808 65.6603 31.984 65.6603 29.92ZM80.7083 29.956C80.7083 28.42 80.2763 27.208 79.4123 26.32C78.5723 25.432 77.5403 24.988 76.3163 24.988C75.0923 24.988 74.0483 25.432 73.1843 26.32C72.3443 27.184 71.9243 28.384 71.9243 29.92C71.9243 31.456 72.3443 32.68 73.1843 33.592C74.0483 34.48 75.0923 34.924 76.3163 34.924C77.5403 34.924 78.5723 34.48 79.4123 33.592C80.2763 32.704 80.7083 31.492 80.7083 29.956ZM103.558 19.696C105.91 19.696 107.782 20.464 109.174 22C110.59 23.512 111.298 25.6 111.298 28.264V40H105.178V29.092C105.178 27.748 104.83 26.704 104.134 25.96C103.438 25.216 102.502 24.844 101.326 24.844C100.15 24.844 99.2139 25.216 98.5179 25.96C97.8219 26.704 97.4739 27.748 97.4739 29.092V40H91.3179V19.912H97.4739V22.576C98.0979 21.688 98.9379 20.992 99.9939 20.488C101.05 19.96 102.238 19.696 103.558 19.696ZM119.5 25.924C118.42 25.924 117.532 25.612 116.836 24.988C116.164 24.34 115.828 23.548 115.828 22.612C115.828 21.652 116.164 20.848 116.836 20.2C117.532 19.552 118.42 19.228 119.5 19.228C120.556 19.228 121.42 19.552 122.092 20.2C122.788 20.848 123.136 21.652 123.136 22.612C123.136 23.548 122.788 24.34 122.092 24.988C121.42 25.612 120.556 25.924 119.5 25.924ZM123.064 34.312L119.068 44.644H115.144L117.232 34.312H123.064Z" fill="#161B1E"/>
</svg>
