<svg width="96" height="24" viewBox="0 0 96 24" fill="none" xmlns="http://www.w3.org/2000/svg">
<path d="M13.972 16.528H6.636L5.46 20H0.448L7.56 0.343999H13.104L20.216 20H15.148L13.972 16.528ZM12.74 12.832L10.304 5.636L7.896 12.832H12.74ZM42.3165 4.208C44.2579 4.208 45.7979 4.796 46.9365 5.972C48.0939 7.148 48.6725 8.78133 48.6725 10.872V20H43.9125V11.516C43.9125 10.508 43.6419 9.73333 43.1005 9.192C42.5779 8.632 41.8499 8.352 40.9165 8.352C39.9832 8.352 39.2459 8.632 38.7045 9.192C38.1819 9.73333 37.9205 10.508 37.9205 11.516V20H33.1605V11.516C33.1605 10.508 32.8899 9.73333 32.3485 9.192C31.8259 8.632 31.0979 8.352 30.1645 8.352C29.2312 8.352 28.4939 8.632 27.9525 9.192C27.4299 9.73333 27.1685 10.508 27.1685 11.516V20H22.3805V4.376H27.1685V6.336C27.6539 5.68267 28.2885 5.16933 29.0725 4.796C29.8565 4.404 30.7432 4.208 31.7325 4.208C32.9085 4.208 33.9539 4.46 34.8685 4.964C35.8019 5.468 36.5299 6.18667 37.0525 7.12C37.5939 6.26133 38.3312 5.56133 39.2645 5.02C40.1979 4.47867 41.2152 4.208 42.3165 4.208ZM51.0692 12.16C51.0692 10.5547 51.3678 9.14533 51.9652 7.932C52.5812 6.71867 53.4118 5.78533 54.4572 5.132C55.5025 4.47867 56.6692 4.152 57.9572 4.152C59.0585 4.152 60.0198 4.376 60.8412 4.824C61.6812 5.272 62.3252 5.86 62.7732 6.588V4.376H67.5612V20H62.7732V17.788C62.3065 18.516 61.6532 19.104 60.8132 19.552C59.9918 20 59.0305 20.224 57.9292 20.224C56.6598 20.224 55.5025 19.8973 54.4572 19.244C53.4118 18.572 52.5812 17.6293 51.9652 16.416C51.3678 15.184 51.0692 13.7653 51.0692 12.16ZM62.7732 12.188C62.7732 10.9933 62.4372 10.0507 61.7652 9.36C61.1118 8.66933 60.3092 8.324 59.3572 8.324C58.4052 8.324 57.5932 8.66933 56.9212 9.36C56.2678 10.032 55.9412 10.9653 55.9412 12.16C55.9412 13.3547 56.2678 14.3067 56.9212 15.016C57.5932 15.7067 58.4052 16.052 59.3572 16.052C60.3092 16.052 61.1118 15.7067 61.7652 15.016C62.4372 14.3253 62.7732 13.3827 62.7732 12.188ZM80.5451 4.208C82.3744 4.208 83.8304 4.80533 84.9131 6C86.0144 7.176 86.5651 8.8 86.5651 10.872V20H81.8051V11.516C81.8051 10.4707 81.5344 9.65867 80.9931 9.08C80.4517 8.50133 79.7237 8.212 78.8091 8.212C77.8944 8.212 77.1664 8.50133 76.6251 9.08C76.0837 9.65867 75.8131 10.4707 75.8131 11.516V20H71.0251V4.376H75.8131V6.448C76.2984 5.75733 76.9517 5.216 77.7731 4.824C78.5944 4.41333 79.5184 4.208 80.5451 4.208ZM92.9443 9.052C92.1043 9.052 91.4136 8.80933 90.8723 8.324C90.3496 7.82 90.0883 7.204 90.0883 6.476C90.0883 5.72933 90.3496 5.104 90.8723 4.6C91.4136 4.096 92.1043 3.844 92.9443 3.844C93.7656 3.844 94.4376 4.096 94.9603 4.6C95.5016 5.104 95.7723 5.72933 95.7723 6.476C95.7723 7.204 95.5016 7.82 94.9603 8.324C94.4376 8.80933 93.7656 9.052 92.9443 9.052ZM95.7163 15.576L92.6083 23.612H89.5563L91.1803 15.576H95.7163Z" fill="#161B1E"/>
</svg>
